<?xml version="1.0" encoding="utf-8"?>
<!-- Generator: Adobe Illustrator 26.0.1, SVG Export Plug-In . SVG Version: 6.00 Build 0)  -->
<svg version="1.1" id="Scene" xmlns="http://www.w3.org/2000/svg" xmlns:xlink="http://www.w3.org/1999/xlink" x="0px" y="0px"
	 viewBox="0 0 500 500" style="enable-background:new 0 0 500 500;" xml:space="preserve">
<style type="text/css">
	.st0{fill:#FF9292;}
	.st1{fill:#FC6565;}
	.st2{fill:#0077D4;}
	.st3{fill:#004B5F;}
	.st4{fill:#F4F4F7;}
	.st5{fill:#232996;}
	.st6{fill:#023047;}
	.st7{fill:#177E89;}
	.st8{fill:#FF971F;}
	.st9{fill:#F74F4F;}
	.st10{opacity:0.32;fill:#177E89;}
	.st11{fill:#005C74;}
	.st12{fill:#FF9D1F;}
</style>
<g>
	<path class="st0" d="M335.51,489.78c1.53,1.4,3.51,1.53,5.02,1.42c23.21-20.94,46.59-41.87,69.84-62.85
		c4.01-3.58,8.03-7.25,12.04-10.83c-1.09-2.31-2.2-4.17-3.33-5.68c-1.96-2.61-4.06-4.17-5.78-5.22
		c-12.19-7.23-32.55-1.43-50.97,15.48c-1.71,1.56-3.33,3.21-5,4.91c-0.41,0.38-0.74,0.76-1.16,1.14c-1.85,1.86-3.8,3.81-5.7,5.71
		c-0.6,0.64-1.2,1.18-1.81,1.82c-7.23,7.28-14.6,14.6-21.93,21.97c-1.02,1.02-2.04,2.03-3.06,3.05c0.55,0.6,1.05,1.33,1.46,1.97
		c2.63,3.53,4.48,6.58,5.82,9.25c1.09,2.22,1.85,4.15,2.26,5.81c0.08,0.27,0.15,0.63,0.22,1.07c0.11,0.49,0.18,0.85,0.25,1.29
		c0.13,0.98,0.13,1.91,0.01,2.7c0,1.02-0.22,3.84,0.93,5.75C334.88,489,335.12,489.45,335.51,489.78z"/>
	<path class="st0" d="M277.76,265.65c-9.55,5.92-23.98,13.05-42.66,16.07c-14.85,2.4-27.85,1.48-37.61-0.12
		c-4.99-0.14-9.52-4.06-11.12-9.38c-1.94-6.45,0.73-13.9,6.46-16.29c26.61-5.28,53.22-10.55,79.83-15.83
		c4.7,5.54,9.39,11.09,14.09,16.63C283.76,259.71,280.76,262.68,277.76,265.65z"/>
	<path class="st0" d="M152.63,228.4c4.24,9.59,11.62,15.15,20.47,21.37c1.4,1,2.85,1.96,4.34,3c1.37,0.93,2.76,1.93,4.2,2.83
		c3.83,2.68,7.95,5.32,12.33,8.23c6.35,4.19,13.13,8.34,20.3,12.71c4.05-8.47,8.05-17.07,12.16-25.56
		c-6.36-5.31-13.28-10.69-20.85-16.17c-1.33-1.02-2.7-1.95-4.1-2.95c-1.9-1.31-3.9-2.66-5.84-3.88
		c-15.58-10.25-30.48-18.15-43.98-24.31c-0.31,0.51-0.61,1.23-0.98,2.14C146.84,215.32,151.25,225.29,152.63,228.4z"/>
	<path class="st1" d="M177.44,252.77c1.37,0.93,2.76,1.93,4.2,2.83c3.83,2.68,7.95,5.32,12.33,8.23
		c4.03-9.59,7.86-19.32,11.62-29.02C196.25,240.74,186.82,246.8,177.44,252.77z"/>
	<path class="st2" d="M187.25,264.76c6.33-10.33,12.66-20.67,18.99-31c-10.62-9.48-21.24-18.95-31.85-28.43
		c-9.49,1.42-17.36,7.97-20.25,16.87c-3.99,12.27,3.65,22.33,4.28,23.13C168.02,251.81,177.64,258.28,187.25,264.76z"/>
	<path class="st0" d="M100.89,352.6c1.46,0.83,6.52,3.4,15.82,0.42l2.01,0.14l5.62,0.35l19.85,1.25l3.96,0.28l11.87,0.76
		c0-0.07,33.17,2.08,33.17,2.08l1.25,0.07l9.79,0.69c0.28,0,18.11,1.11,18.11,1.11c0.07,0,3.47,0.21,3.47,0.21l2.85-43.52
		l-3.05-0.14c-0.07,0-3.68-0.28-3.68-0.28l-2.98-0.21l-3.75-0.21l-1.6-0.14c-0.07,0-9.58-0.62-9.58-0.62l-1.25-0.07h-0.76
		l-2.78-0.21l-2.43-0.14l-3.05-0.21l-10.76-0.69l-2.92-0.14c-0.07,0-2.78-0.21-2.78-0.21l-2.98-0.21l-3.26-0.21l-13.53-0.83
		l-2.43-0.14l-4.51-0.28l-9.86-0.63l-1.67-0.14l-3.19-0.21l-10.55-0.76l-4.93-0.28l-0.83-0.07c-1.11,1.04-4.16,3.89-8.95,4.51
		c-7.29,0.97-12.35-3.89-13.05-4.51C88.25,329.15,91.59,347.26,100.89,352.6z"/>
	<path class="st0" d="M152.31,321.55c-3.72,1.1-7.98,1.97-12.7,2.31c-20.16,1.43-35.85-7.91-42.79-12.73
		c8.28-28.14,21-60.24,40.92-93.19c5.08-8.41,10.29-16.3,15.53-23.71c7.5,2.97,15,5.94,22.5,8.9
		C167.95,242.61,160.13,282.08,152.31,321.55z"/>
	<path class="st0" d="M152.94,194.71c3.68,1.39,7.43,2.92,11.04,4.3c1.39,0.55,2.85,1.18,4.23,1.73c2.36,0.9,4.72,1.8,7.08,2.78
		c0.14,0.07,0.28,0.07,0.42,0.14c0-0.21,0.07-0.28,0.07-0.49c0.42-1.8,0.9-3.54,1.39-5.28c0.49-1.87,0.9-3.68,1.39-5.48
		c0.21-0.83,0.42-1.73,0.63-2.57c0.62-2.15,1.11-4.16,1.67-6.18c0.28-1.18,0.49-2.29,0.83-3.33c0.42-1.87,0.97-3.75,1.46-5.69
		c-0.69-0.28-1.32-0.56-2.01-0.9c-3.61-1.53-7.29-2.99-10.9-4.58c-1.87,2.57-3.68,5.14-5.41,7.77c-1.32,1.87-2.5,3.75-3.82,5.69
		c-0.07,0.21-0.21,0.42-0.42,0.62c-1.39,2.08-2.71,4.16-4.1,6.25C155.23,191.24,154.12,192.98,152.94,194.71z"/>
	<path class="st0" d="M276.37,271.56c-9.55,5.92-23.98,13.05-42.66,16.07c-14.85,2.4-27.85,1.48-37.61-0.12
		c-4.99-0.14-9.52-4.06-11.12-9.38c-1.94-6.45,0.73-13.9,6.46-16.29c26.61-5.28,53.22-10.55,79.83-15.83L276.37,271.56z"/>
	<path class="st0" d="M208.79,339.47c-0.04,1.94,0.22,3.9,0.73,5.85c0.45,1.83,1.2,3.61,2.14,5.33c0.18,0.31,0.35,0.55,0.59,0.86
		c6.47,10.59,20.75,13.93,32.31,7.42c8.55-4.75,13.29-13.59,12.92-22.29l-0.3-3.05c0-0.12,0.01-0.24-0.05-0.37
		c-0.44-2.32-1.24-4.59-2.41-6.74c-0.53-0.92-1.12-1.85-1.77-2.65c-1.72-2.22-3.81-4.09-6.15-5.54c-0.54-0.31-1.14-0.63-1.74-0.89
		c-6.98-3.49-15.73-3.49-23.3,0.79c-2.64,1.46-4.87,3.3-6.74,5.45C211.03,328.15,208.85,333.76,208.79,339.47z"/>
	<path class="st0" d="M224.98,359.53c-0.04,1.94,0.22,3.9,0.73,5.85c0.45,1.83,1.2,3.61,2.14,5.33c0.18,0.31,0.35,0.55,0.59,0.86
		c6.47,10.59,20.75,13.93,32.31,7.42c8.55-4.75,13.29-13.59,12.92-22.29l-0.3-3.05c0-0.12,0.01-0.24-0.05-0.37
		c-0.44-2.32-1.24-4.59-2.41-6.74c-0.53-0.92-1.12-1.85-1.77-2.65c-1.72-2.22-3.81-4.09-6.15-5.54c-0.54-0.32-1.14-0.63-1.74-0.89
		c-6.98-3.49-15.73-3.49-23.3,0.8c-2.64,1.46-4.87,3.3-6.74,5.45C227.22,348.21,225.04,353.82,224.98,359.53z"/>
	<g>
		<path class="st0" d="M223.3,464.16c5.11,2.79,38.85,20.91,46.93,11.62c1.58-1.81,3.26-5.91-0.71-16.18
			c-0.85-8.78-1.71-17.57-2.56-26.35l-0.69-6.98l-0.21-1.68l-0.67-6.79l-0.19-1.99l-0.69-6.98l-0.19-1.99l-0.66-6.73l-0.18-1.93
			l-0.64-6.6l-0.2-2.06l-0.69-6.98c-0.25-0.47-0.3-0.85-0.16-1.24l-0.74-7.92l-0.11-0.87l-1.68-17.32
			c-0.57-4.59-1.13-9.19-1.7-13.78c-15.22,2.25-30.44,4.5-45.66,6.75l0.15,1.68l0.76,7.54L223.3,464.16z"/>
		<path class="st0" d="M211.94,484.1c0.19,2.06,1.56,3.5,2.75,4.44c31.26,0.19,62.64,0.5,93.96,0.69
			c5.38,0.06,10.81,0.06,16.19,0.13c0.75-2.44,1.19-4.56,1.38-6.44c0.31-3.25-0.19-5.81-0.75-7.75c-4.13-13.56-23.07-23-48.07-22.94
			c-2.31,0-4.63,0.12-7,0.25c-0.56,0-1.06,0.06-1.63,0.06c-2.63,0.12-5.38,0.25-8.06,0.38c-0.87,0.06-1.69,0.06-2.56,0.12
			c-10.25,0.5-20.63,0.94-31.01,1.44c-1.44,0.06-2.88,0.12-4.31,0.19c0,0.81-0.12,1.69-0.25,2.44c-0.44,4.38-1.13,7.88-1.94,10.75
			c-0.69,2.38-1.44,4.31-2.25,5.81c-0.12,0.25-0.31,0.56-0.56,0.94c-0.25,0.44-0.44,0.75-0.69,1.12c-0.56,0.81-1.19,1.5-1.81,2
			c-0.69,0.75-2.75,2.69-3.19,4.88C212,483.1,211.88,483.6,211.94,484.1z"/>
		<path class="st3" d="M211.94,484.1c0.19,2.06,1.56,3.5,2.75,4.44c31.26,0.19,62.64,0.5,93.96,0.69
			c5.38,0.06,10.81,0.06,16.19,0.06c0.75-2.38,1.19-4.5,1.38-6.38c0.31-3.25-0.19-5.81-0.75-7.75c-4.13-13.56-23.07-23-48.07-22.94
			c-2.31,0-4.63,0.12-7,0.25c-0.56,0-1.06,0.06-1.63,0.06c2.35,6.58,4.35,14.38,1.29,16.74c-2.55,1.97-6.16-2.96-13.79-3.43
			c-9.71-0.6-13.07,6.66-22.86,6.47c-4.79-0.1-9.07-1.93-12.77-4.47c-1.35,3.87-2,5.32-2.25,5.81c-0.12,0.25-0.31,0.56-0.56,0.94
			c-0.25,0.44-0.44,0.75-0.69,1.12c-0.56,0.81-1.19,1.5-1.81,2c-0.69,0.75-2.75,2.69-3.19,4.88C212,483.1,211.88,483.6,211.94,484.1
			z"/>
	</g>
	<path class="st1" d="M170.91,173.2c2.57,6.39,5.07,12.84,7.63,19.22c0.21-0.83,0.42-1.73,0.63-2.57c0.62-2.15,1.11-4.16,1.67-6.18
		c0.28-1.18,0.49-2.29,0.83-3.33c0.42-1.87,0.97-3.75,1.46-5.69c-0.69-0.28-1.32-0.56-2.01-0.9
		C177.71,173.61,174.31,173.41,170.91,173.2z"/>
	<g>
		<path class="st0" d="M169.67,161.83c-1.3,11.52,4.93,21.69,13.79,22.63c7.49,0.83,14.5-5.12,17.26-13.84
			c0.52-1.62,0.93-3.36,1.12-5.18c0.01-0.11,0.15-2.05,0.15-2.05c0.13-4.85-0.92-9.33-3-12.92c-2.48-4.36-6.38-7.33-10.98-7.84
			l-0.97-0.07c-7.7-0.28-14.72,6.59-16.85,16.15C169.94,159.74,169.81,160.76,169.67,161.83z"/>
		<path class="st0" d="M195.53,177.15c0.76-0.5,1.51-1,2.27-1.5c1.94-1.67,3.89-3.34,5.83-5.02c0.09-0.32,0.17-0.79-0.05-1.17
			c-0.39-0.68-1.46-0.72-1.89-0.74c-1.19-0.08-2.98-0.41-5.66-1.51C195.86,170.52,195.7,173.84,195.53,177.15z"/>
	</g>
	<path class="st1" d="M179.12,166.01c-0.08,2.29,1.72,4.22,4.01,4.29c2.29,0.08,4.22-1.72,4.29-4.01c0.08-2.29-1.72-4.22-4.01-4.3
		C181.13,161.92,179.2,163.72,179.12,166.01z"/>
	<g>
		<path class="st4" d="M189.95,163.1c-0.18,1.61,2.25,2.98,3.92,3.48c1.04,0.34,2.14,0.47,3.04,0.47c0.23-0.02,0.39-0.05,0.55-0.09
			c0.78-0.1,1.45-0.38,1.72-0.84c0.59-1.13-0.35-3.33-2.13-4.61c-0.11-0.18-0.18-0.2-0.3-0.3c-0.46-0.27-1.01-0.48-1.64-0.64
			c-0.21-0.05-0.37-0.02-0.51-0.06c-0.28-0.07-0.51-0.06-0.74-0.04C191.93,160.67,190.04,161.85,189.95,163.1z"/>
		<path class="st5" d="M193.82,162.36c-0.38,1.48-0.3,2.93,0.05,4.22c1.04,0.34,2.14,0.47,3.04,0.47c0.23-0.02,0.39-0.05,0.55-0.09
			c0.78-0.1,1.45-0.38,1.72-0.84c0.59-1.13-0.35-3.33-2.13-4.61c-0.11-0.18-0.18-0.2-0.3-0.3c-0.46-0.27-1.01-0.48-1.64-0.64
			c-0.21-0.05-0.37-0.02-0.51-0.06C194.24,161.04,193.99,161.72,193.82,162.36z"/>
	</g>
	<path class="st4" d="M188.16,175.61c-0.63,0.33-0.59,3.18,1.12,4.18c1.45,0.85,3.6,0.05,3.71-0.67c0.05-0.34-0.37-0.52-2.93-2.37
		C188.62,175.7,188.38,175.49,188.16,175.61z"/>
	<g>
		<g>
			<path class="st6" d="M404.98,490.28c-0.44,0-0.84-0.32-0.92-0.77l-34.8-194.64c-0.09-0.51,0.25-0.99,0.75-1.08
				c0.5-0.1,0.99,0.24,1.08,0.75l34.8,194.65c0.09,0.51-0.25,0.99-0.75,1.08C405.09,490.28,405.03,490.28,404.98,490.28z"/>
		</g>
		<g>
			<path class="st6" d="M194.89,490.28c-0.67-0.11-1.01-0.59-0.92-1.1l34.79-194.65c0.09-0.51,0.57-0.86,1.08-0.75
				c0.51,0.09,0.85,0.58,0.75,1.08L195.8,489.52C195.72,489.97,195.33,490.28,194.89,490.28z"/>
		</g>
	</g>
	<path class="st7" d="M197.42,300.22h209.51c3.87,0,7.03-3.16,7.03-7.03c0-3.87-3.16-7.03-7.03-7.03H197.42
		c-3.87,0-7.03,3.16-7.03,7.03C190.39,297.05,193.55,300.22,197.42,300.22z"/>
	<g>
		<path class="st6" d="M331.83,285.24l0.83,0.23c1.39,0.38,2.84-0.44,3.23-1.83l26.81-97.17c0.38-1.39-0.44-2.84-1.83-3.23
			l-0.83-0.23c-1.39-0.38-2.84,0.44-3.23,1.83L330,282.01C329.62,283.4,330.44,284.85,331.83,285.24z"/>
		<path class="st6" d="M230.59,286.15h99.57c1.63,0,2.96-1.33,2.96-2.96c0-1.63-1.33-2.96-2.96-2.96h-99.57
			c-1.63,0-2.96,1.33-2.96,2.96C227.62,284.82,228.96,286.15,230.59,286.15z"/>
	</g>
	<path class="st0" d="M276.37,271.56c1.76,0.78,3.59,1.66,5.47,2.64c3.72,1.95,7.02,4.01,9.9,6.03c1.88,0.24,3.76,0.48,5.64,0.72
		c1.47,0.92,3.48-8.12-2.17-22.16c-0.85-0.98-1.78-1.97-2.82-2.93c-7.06-6.54-15.38-8.92-21.12-9.85
		C272.98,254.53,274.67,263.05,276.37,271.56z"/>
	<path class="st0" d="M274.98,249.54h8.49c1.14,0.34,4.93,1.32,8.7-0.62c0.6-0.31,3.58-1.84,3.36-3.14
		c-0.19-1.11-2.71-2.23-12.8-2.39c-3.94,0.9-7.87,1.79-11.81,2.69C272.28,247.23,273.63,248.39,274.98,249.54z"/>
	<path class="st1" d="M193.19,357.88l1.25,0.07l9.79,0.69c0.07-14.57-0.07-29.15-0.21-43.79c-2.36,5-4.79,9.99-7.15,14.99
		C195.69,339.21,194.37,348.51,193.19,357.88z"/>
	<path class="st8" d="M97.41,355.41c32.77,1.45,65.55,2.89,98.32,4.34c2.89-15.71,5.78-31.42,8.68-47.14
		c-28.87-1.06-57.74-2.13-86.61-3.19c-1.56-0.46-15.16-4.28-23.74,3.06C84.56,320.61,83.65,340.29,97.41,355.41z"/>
	<path class="st2" d="M85.82,309.99c7.29,2.5,16.1,4.79,26.37,5.97c7.98,0.97,15.48,1.04,22.35,0.62
		c10.83-0.55,20.06-2.5,27.07-4.37c2.98-22.9,5.97-45.74,8.88-68.64c1.8-13.46,3.54-27,5.27-40.46c-7.5-2.92-14.99-5.9-22.49-8.88
		c-3.96,3.47-7.77,7.15-11.66,11.1C109.14,238.92,93.6,278.27,85.82,309.99z"/>
	<path class="st6" d="M174.06,161.12c1.38,0.58,3.28,1.11,5.06,0.39c1.48-0.59,2.16-1.75,2.86-2.6c1.33-1.61,3.78-3.42,8.74-4.16
		c1.3,0.89,3.49,2.16,6.45,2.86c3.25,0.77,5.98,0.52,7.59,0.25c4.36-4.76,4.74-6.84,4.16-7.84c-0.46-0.81-1.48-0.8-2.86-2.04
		c-1.36-1.23-2.01-2.73-2.34-3.8c-0.53,0.28-1.35,0.64-2.39,0.78c-3.28,0.43-5.64-1.75-7.68-2.86c-4.82-2.62-11.41-1.14-15.27,1.06
		c-6.81,3.88-8.2,11.78-8.41,13.06c-0.83,8.4-0.79,12.7,0.1,12.88C170.82,169.26,172.15,166.6,174.06,161.12z"/>
	<path class="st0" d="M179.11,161.2c-0.14,2.46-2.05,4.35-4.27,4.23c-2.22-0.12-3.91-2.22-3.77-4.67c0.14-2.46,2.05-4.35,4.27-4.23
		C177.56,156.65,179.25,158.74,179.11,161.2z"/>
	<g>
		<path class="st9" d="M209.54,259.51c-0.3,0-0.6-0.15-0.78-0.42l-9.69-14.72c-0.28-0.43-0.16-1.01,0.27-1.29
			c0.43-0.28,1.01-0.16,1.29,0.27l9.69,14.72c0.28,0.43,0.16,1.01-0.27,1.29C209.89,259.45,209.72,259.51,209.54,259.51z"/>
	</g>
	<g>
		<path class="st9" d="M209.44,258.86c-0.44,0-0.83-0.31-0.92-0.76c-0.09-0.5,0.24-0.99,0.75-1.09l65.53-12.37
			c0.54-0.12,0.99,0.24,1.09,0.75c0.09,0.5-0.24,0.99-0.75,1.09l-65.53,12.37C209.55,258.85,209.49,258.86,209.44,258.86z"/>
	</g>
	<g>
		<path class="st2" d="M153.49,217.75c0.35,10.34,4.93,18.25,10.62,27.28c0.9,1.46,1.87,2.92,2.85,4.44c0.9,1.39,1.8,2.85,2.78,4.23
			c1.67,2.64,3.4,5.21,5.28,7.98c0.97,1.46,1.94,2.85,2.91,4.37c4.23,6.32,8.88,12.77,13.81,19.57c7.01-6.25,14.02-12.63,21.1-18.88
			c-3.82-7.36-8.12-14.92-12.98-22.9c-0.83-1.53-1.73-2.92-2.64-4.37c-1.25-1.94-2.57-3.96-3.89-5.83
			c-7.08-10.48-14.23-19.85-21.31-28.18c-3.4,0.28-9.72,1.53-14.71,6.8C155.71,213.94,154.46,215.74,153.49,217.75z"/>
		<path class="st2" d="M166.96,249.47c0.9,1.39,1.8,2.85,2.78,4.23c2.5,3.96,5.28,7.98,8.19,12.35
			c7.43-7.29,14.71-14.78,21.93-22.28C188.96,245.65,177.92,247.6,166.96,249.47z"/>
		<path class="st2" d="M152.31,235.24c6.32,9.72,12.7,19.36,19.09,29.08c1.18-0.83,2.43-1.73,3.61-2.64
			c8.19-5.9,16.38-11.8,24.64-17.7c0.56-0.42,0.9-0.62,1.25-0.9c-8.81-12.63-17.7-25.19-26.51-37.76c-0.35,0-1.18,0-2.36,0.14
			c-3.4,0.28-9.72,1.53-14.71,6.8c-1.6,1.67-2.85,3.47-3.82,5.48C150.92,223.03,150.44,229.28,152.31,235.24z"/>
	</g>
	<path class="st6" d="M171.33,480.75c0,4.75,3.85,8.6,8.6,8.6c4.75,0,8.6-3.85,8.6-8.6c0-4.75-3.85-8.6-8.6-8.6
		C175.18,472.15,171.33,476,171.33,480.75z"/>
	<g>
		<path class="st6" d="M89.52,371.89h91.14c5.07,0,9.21-4.15,9.21-9.21c0-5.07-4.15-9.21-9.21-9.21H89.52
			c-5.07,0-9.21,4.15-9.21,9.21C80.31,367.75,84.46,371.89,89.52,371.89z"/>
		
			<rect x="131.39" y="367.99" transform="matrix(-1 -1.224647e-16 1.224647e-16 -1 270.1878 844.8631)" class="st6" width="7.4" height="108.88"/>
		<g>
			<path class="st6" d="M179.25,486.77c-0.68-0.12-1.02-0.61-0.91-1.12c2.72-13.8-3.02-27.47-14.3-34
				c-12.34-7.15-25.32-2.18-27.8-1.11c-0.47,0.2-1.02-0.01-1.22-0.49c-0.2-0.47,0.01-1.02,0.49-1.22
				c2.62-1.14,16.37-6.39,29.47,1.21c11.97,6.93,18.07,21.39,15.2,35.98C180.08,486.46,179.69,486.77,179.25,486.77z"/>
		</g>
		<path class="st6" d="M127.27,480.75c0,4.75,3.85,8.6,8.6,8.6c4.75,0,8.6-3.85,8.6-8.6c0-4.75-3.85-8.6-8.6-8.6
			C131.12,472.15,127.27,476,127.27,480.75z"/>
		<g>
			<g>
				<path class="st6" d="M91.72,486.77c-0.44,0-0.83-0.31-0.91-0.75c-2.88-14.59,3.23-29.05,15.2-35.98
					c13.1-7.6,26.85-2.34,29.47-1.21c0.47,0.2,0.69,0.75,0.49,1.22c-0.21,0.47-0.76,0.68-1.22,0.49c-2.48-1.06-15.45-6.03-27.8,1.11
					c-11.28,6.53-17.02,20.2-14.3,34c0.1,0.51-0.23,1-0.73,1.1C91.84,486.76,91.77,486.77,91.72,486.77z"/>
			</g>
			<path class="st6" d="M99.64,480.75c0,4.75-3.85,8.6-8.6,8.6c-4.75,0-8.6-3.85-8.6-8.6c0-4.75,3.85-8.6,8.6-8.6
				C95.79,472.15,99.64,476,99.64,480.75z"/>
		</g>
	</g>
	<g>
		<path class="st9" d="M264.44,408.9c-0.48,0-0.88-0.36-0.93-0.84l-6.96-71.31c-0.05-0.51,0.32-0.97,0.84-1.02
			c0.55-0.05,0.97,0.33,1.02,0.84l6.96,71.31c0.05,0.51-0.32,0.97-0.84,1.02C264.5,408.9,264.47,408.9,264.44,408.9z"/>
	</g>
	<path class="st10" d="M235.84,97.18c0,1.97,1.39,3.94,3.91,3.94c3.81,0,5.4,4.85,2.29,7.08c-1.16,0.84-1.65,1.97-1.65,3.1
		c0,2.42,2.26,4.75,5.17,3.78c0.42-0.13,0.84-0.19,1.26-0.19c3,0,5.11,3.52,3.1,6.24c-0.55,0.74-0.77,1.55-0.77,2.29
		c0,2.88,3.39,5.27,6.24,3.17c0.74-0.55,1.52-0.78,2.29-0.78c2.46,0,4.65,2.42,3.75,5.14c-0.16,0.45-0.23,0.9-0.23,1.32
		c0,3.49,4.78,5.43,7.11,2.2c0.81-1.13,1.97-1.62,3.13-1.62c2,0,3.97,1.52,3.94,3.91c0,2.52,1.97,3.94,3.97,3.94
		c1.55,0,3.07-0.84,3.68-2.71c0.58-1.81,2.16-2.71,3.72-2.71c1.55,0,3.13,0.9,3.72,2.71c0.58,1.87,2.13,2.71,3.68,2.71
		c1.97,0,3.97-1.42,3.97-3.94c0-3.78,4.85-5.36,7.08-2.29c0.84,1.16,1.97,1.65,3.1,1.65c2.39,0,4.72-2.26,3.78-5.17
		c-0.13-0.42-0.23-0.87-0.23-1.26c0-2.97,3.52-5.1,6.24-3.1c0.74,0.55,1.55,0.81,2.33,0.81c2.88,0,5.23-3.42,3.17-6.27
		c-0.55-0.74-0.78-1.55-0.78-2.29c0-2.46,2.39-4.62,5.14-3.75c0.45,0.16,0.9,0.23,1.32,0.23c3.49,0,5.43-4.78,2.2-7.11
		c-1.13-0.81-1.65-2-1.65-3.13c0-2,1.52-3.97,3.94-3.94c2.52,0,3.91-1.97,3.91-3.94c0-1.55-0.84-3.1-2.71-3.68
		c-1.81-0.58-2.71-2.16-2.71-3.75c0-1.55,0.9-3.13,2.71-3.72c1.87-0.58,2.71-2.13,2.71-3.68c0-1.97-1.39-3.97-3.91-3.94
		c-2.42,0-3.94-1.97-3.94-3.94c0-1.16,0.52-2.33,1.65-3.13c1.16-0.84,1.65-1.97,1.65-3.1c0-2.42-2.26-4.75-5.17-3.81
		c-0.45,0.13-0.87,0.23-1.29,0.23c-2.97,0-5.07-3.52-3.07-6.24c0.55-0.74,0.77-1.55,0.77-2.29c0-2.87-3.39-5.27-6.27-3.17
		c-0.74,0.52-1.52,0.78-2.29,0.78c-2.46,0-4.62-2.42-3.72-5.17c0.16-0.45,0.23-0.9,0.23-1.29c0-3.49-4.78-5.46-7.11-2.2
		c-0.81,1.13-1.97,1.61-3.13,1.61c-2,0-3.97-1.52-3.94-3.94c0-2.52-2-3.91-3.97-3.91c-1.55,0-3.1,0.84-3.68,2.71
		c-0.58,1.81-2.16,2.71-3.72,2.71c-1.55,0-3.13-0.9-3.72-2.71c-1.39-4.26-7.66-3.26-7.66,1.2c0,3.81-4.85,5.4-7.08,2.33
		c-0.84-1.16-1.97-1.65-3.1-1.65c-2.39,0-4.72,2.26-3.78,5.14c0.13,0.42,0.19,0.87,0.19,1.26c0,3.01-3.52,5.11-6.24,3.13
		c-0.74-0.55-1.55-0.81-2.29-0.81c-2.88,0-5.23,3.42-3.17,6.27c0.55,0.74,0.78,1.55,0.78,2.29c0,2.45-2.39,4.62-5.14,3.72
		c-0.45-0.16-0.9-0.23-1.29-0.23c-3.52,0-5.46,4.81-2.23,7.14c1.13,0.81,1.65,1.97,1.65,3.13c0,1.97-1.52,3.94-3.94,3.94
		c-4.46,0-5.46,6.27-1.2,7.62c1.81,0.58,2.71,2.16,2.71,3.72c0,1.58-0.9,3.17-2.71,3.75C236.68,94.08,235.84,95.63,235.84,97.18z
		 M272.22,89.75c0-8.01,6.49-14.54,14.54-14.54c8.04,0,14.54,6.53,14.54,14.54c0,8.04-6.49,14.54-14.54,14.54
		C278.72,104.29,272.22,97.8,272.22,89.75z"/>
	<g>
		<path class="st7" d="M297.26,135.72c-2.17,0-3.93-1.29-4.57-3.37c-0.49-1.51-1.83-2.06-2.83-2.06c-1,0-2.33,0.54-2.83,2.07
			c-0.68,2.08-2.43,3.36-4.57,3.36c-2.38,0-4.91-1.71-4.91-4.87c0.01-1.02-0.43-1.69-0.8-2.07c-0.57-0.58-1.38-0.91-2.21-0.91
			c-0.68,0-1.65,0.21-2.38,1.23c-1.27,1.77-3.33,2.47-5.38,1.8c-2.05-0.66-3.42-2.48-3.42-4.53c0-0.56,0.09-1.11,0.28-1.64
			c0.3-0.9,0.16-1.83-0.39-2.59c-0.96-1.33-2.86-1.71-4.22-0.7c-1.52,1.12-3.33,1.3-4.96,0.47c-1.68-0.84-2.76-2.57-2.76-4.39
			c0-1.01,0.33-2,0.96-2.85c0.7-0.94,0.8-2.06,0.29-3.08c-0.67-1.34-2.23-1.93-3.62-1.51c-1.51,0.51-3.05,0.31-4.31-0.6
			c-1.28-0.92-2.07-2.48-2.07-4.07c0-1.54,0.72-2.91,2.04-3.86c1.31-0.94,1.43-2.33,1.11-3.33c-0.32-0.99-1.23-2.05-2.82-2.05
			c-3.18,0-4.87-2.51-4.87-4.87c0-2.18,1.29-3.93,3.37-4.57c1.52-0.49,2.06-1.8,2.06-2.86c0-1-0.54-2.33-2.06-2.83
			c-2.73-0.87-3.63-3.31-3.31-5.35c0.37-2.41,2.33-4.1,4.76-4.1c1.92,0,3.04-1.53,3.04-3.01c0-0.95-0.45-1.8-1.26-2.38
			c-1.77-1.27-2.45-3.34-1.8-5.39c0.83-2.59,3.65-4.06,6.17-3.16c0.92,0.3,1.86,0.17,2.62-0.39c0.78-0.56,1.27-1.5,1.27-2.45
			c0-0.43-0.1-1.08-0.59-1.74c-1.1-1.51-1.27-3.38-0.44-5.01c1.32-2.58,4.74-3.59,7.21-1.76c0.94,0.68,2.06,0.78,3.09,0.26
			c1.03-0.53,1.66-1.54,1.66-2.64c0-0.31-0.05-0.67-0.15-0.99c-0.49-1.51-0.27-3.04,0.63-4.28c0.92-1.27,2.47-2.07,4.04-2.07
			c1.54,0,2.91,0.72,3.86,2.04c0.94,1.3,2.35,1.4,3.33,1.08c1-0.32,2.06-1.23,2.06-2.83c0-2.89,2.05-4.5,4.09-4.82
			c2.05-0.31,4.49,0.58,5.38,3.31c0.5,1.53,1.83,2.07,2.83,2.07c1,0,2.34-0.54,2.83-2.06c0.64-2.07,2.4-3.36,4.57-3.36
			c2.38,0,4.91,1.7,4.91,4.84c-0.01,1.05,0.43,1.72,0.81,2.1c0.57,0.58,1.37,0.91,2.2,0.91c0.68,0,1.65-0.21,2.38-1.22
			c1.27-1.77,3.32-2.48,5.36-1.81c2.06,0.66,3.44,2.49,3.44,4.55c0,0.53-0.1,1.09-0.28,1.61c-0.31,0.92-0.17,1.87,0.4,2.65
			c0.92,1.28,2.68,1.72,4.2,0.67c1.52-1.12,3.34-1.28,4.99-0.45c1.67,0.85,2.75,2.57,2.75,4.38c0,1.02-0.33,2-0.96,2.85
			c-0.7,0.94-0.8,2.07-0.28,3.09c0.51,1.02,1.51,1.66,2.6,1.66c0.27,0,0.58-0.05,1.03-0.19c1.51-0.48,3.05-0.27,4.29,0.64
			c1.27,0.93,2.07,2.48,2.07,4.06c0,1.54-0.72,2.91-2.03,3.86c-0.82,0.58-1.26,1.42-1.26,2.38c0,1.48,1.13,3.01,3.01,3.01
			c1.31-0.1,2.5,0.44,3.39,1.32c0.92,0.91,1.45,2.2,1.45,3.55c0,2.18-1.29,3.93-3.37,4.57c-1.51,0.49-2.06,1.82-2.06,2.82
			c0,1.06,0.54,2.37,2.07,2.86c2.07,0.64,3.36,2.4,3.36,4.57c0,2.36-1.7,4.87-4.84,4.87c-0.98,0.07-1.72,0.44-2.1,0.81
			c-0.58,0.57-0.91,1.37-0.91,2.2c0,0.94,0.46,1.8,1.26,2.37c1.77,1.28,2.46,3.34,1.8,5.39c-0.66,2.04-2.48,3.42-4.53,3.42
			c-0.56,0-1.11-0.09-1.64-0.28c-0.9-0.29-1.85-0.14-2.62,0.41c-0.79,0.58-1.27,1.5-1.27,2.45c0,0.43,0.1,1.07,0.59,1.74
			c1.1,1.52,1.27,3.39,0.44,5.01c-1.32,2.59-4.76,3.57-7.24,1.76c-0.94-0.7-2.06-0.79-3.07-0.28c-1.02,0.51-1.68,1.54-1.68,2.63
			c0,0.26,0.07,0.6,0.18,0.98c0.5,1.54,0.27,3.07-0.64,4.32c-0.93,1.27-2.47,2.06-4.03,2.06c-1.54,0-2.91-0.72-3.86-2.03
			c-0.94-1.29-2.34-1.42-3.34-1.08c-0.99,0.32-2.05,1.22-2.05,2.8C302.17,134.01,299.64,135.72,297.26,135.72z M289.86,128.43
			c2.14,0,3.95,1.32,4.6,3.36c0.4,1.3,1.45,2.07,2.8,2.07c1.51,0,3.04-1.03,3.04-3.01c0-2.15,1.31-3.95,3.34-4.6
			c2.04-0.68,4.16,0.03,5.42,1.76c0.76,1.04,1.69,1.26,2.35,1.26c0.98,0,1.94-0.5,2.52-1.29c0.39-0.54,0.76-1.43,0.37-2.66
			c-0.12-0.4-0.27-0.98-0.27-1.54c0-1.81,1.03-3.45,2.7-4.29c1.65-0.83,3.52-0.67,5.02,0.44c1.58,1.16,3.65,0.52,4.47-1.1
			c0.3-0.59,0.66-1.76-0.28-3.06c-0.62-0.85-0.95-1.83-0.95-2.84c0-1.55,0.76-3.03,2.03-3.96c1.25-0.91,2.82-1.15,4.32-0.68
			c1.8,0.63,3.38-0.63,3.8-1.94c0.41-1.27-0.01-2.5-1.11-3.3c-1.29-0.92-2.04-2.34-2.04-3.89c0-1.32,0.53-2.61,1.46-3.53
			c0.9-0.89,2.16-1.4,3.42-1.35c1.94,0,2.96-1.51,2.96-3.01c0-1.35-0.77-2.39-2.06-2.8c-2.05-0.66-3.37-2.47-3.37-4.64
			c0-2.14,1.32-3.94,3.36-4.6c1.3-0.4,2.06-1.44,2.06-2.79c0-0.86-0.32-1.67-0.89-2.23c-0.52-0.51-1.22-0.78-2.03-0.78
			c-3.11,0-4.93-2.48-4.93-4.87c0-1.55,0.74-2.97,2.04-3.89c1.04-0.75,1.26-1.69,1.26-2.34c0-0.99-0.5-1.97-1.3-2.56
			c-0.53-0.39-1.42-0.76-2.65-0.37c-0.47,0.14-1,0.27-1.58,0.27c-1.8,0-3.43-1.03-4.27-2.68c-0.83-1.65-0.67-3.53,0.45-5.04
			c0.39-0.52,0.59-1.13,0.59-1.74c0-1.1-0.7-2.19-1.73-2.71c-0.59-0.31-1.75-0.66-3.06,0.3c-2.37,1.66-5.28,1-6.79-1.09
			c-0.91-1.26-1.15-2.84-0.65-4.35c0.12-0.33,0.18-0.68,0.18-1c0-1.45-1.07-2.44-2.14-2.78c-1.28-0.41-2.49,0.02-3.28,1.13
			c-0.92,1.29-2.31,2-3.89,2c-1.32,0-2.61-0.53-3.53-1.46c-0.88-0.9-1.37-2.11-1.35-3.42c0-1.94-1.53-2.96-3.04-2.96
			c-1.35,0-2.4,0.77-2.8,2.06c-0.66,2.05-2.46,3.37-4.6,3.37c-2.14,0-3.94-1.32-4.6-3.36c-0.58-1.8-2.14-2.21-3.32-2.04
			c-1.16,0.18-2.52,1.07-2.52,2.95c0,2.17-1.32,3.98-3.35,4.64c-2.05,0.66-4.16-0.03-5.42-1.76c-0.75-1.05-1.69-1.26-2.35-1.26
			c-0.98,0-1.95,0.5-2.53,1.3c-0.38,0.53-0.76,1.41-0.36,2.62c0.16,0.51,0.24,1.06,0.24,1.55c0,1.81-1.03,3.46-2.68,4.3
			c-1.64,0.83-3.52,0.68-5.03-0.41c-1.6-1.18-3.64-0.49-4.44,1.1c-0.3,0.59-0.66,1.76,0.28,3.06c0.62,0.84,0.95,1.83,0.95,2.84
			c0,1.56-0.77,3.04-2.04,3.96c-1.25,0.9-2.83,1.13-4.32,0.64c-1.87-0.66-3.38,0.67-3.79,1.97c-0.41,1.27,0,2.51,1.1,3.3
			c1.29,0.92,2.04,2.35,2.04,3.89c0,2.4-1.82,4.87-4.87,4.87c-1.9,0-2.77,1.35-2.95,2.52c-0.18,1.16,0.24,2.72,2.04,3.29
			c2.04,0.66,3.36,2.47,3.36,4.6c0,2.16-1.32,3.98-3.36,4.64c-1.3,0.4-2.06,1.45-2.06,2.8c0,1.49,1.02,3.01,2.98,3.01
			c2.17,0,3.98,1.32,4.63,3.35c0.66,2.04-0.05,4.16-1.8,5.42c-1.04,0.75-1.26,1.69-1.26,2.35c0,1,0.5,1.97,1.3,2.55
			c0.52,0.38,1.43,0.77,2.64,0.34c2.32-0.73,4.78,0.32,5.86,2.45c0.83,1.64,0.66,3.52-0.45,5.03c-0.39,0.53-0.59,1.13-0.59,1.74
			c0,1.1,0.7,2.2,1.74,2.72c0.59,0.3,1.74,0.64,3.01-0.31c2.16-1.6,5.29-1.03,6.84,1.11c0.9,1.25,1.14,2.82,0.64,4.29
			c-0.12,0.34-0.18,0.68-0.18,1.03c0,1.44,1.07,2.42,2.13,2.76c1.26,0.39,2.5-0.01,3.29-1.11c0.92-1.29,2.31-2.01,3.89-2.01
			c1.33,0,2.62,0.54,3.53,1.47c0.88,0.89,1.36,2.1,1.34,3.39c0,1.96,1.53,2.99,3.04,2.99c0.64,0,2.18-0.2,2.8-2.07
			C285.92,129.75,287.72,128.43,289.86,128.43z M289.86,99.31c-8.53,0-15.47-6.94-15.47-15.47c0-8.53,6.94-15.47,15.47-15.47
			c8.53,0,15.47,6.94,15.47,15.47C305.33,92.37,298.39,99.31,289.86,99.31z M289.86,70.23c-7.5,0-13.6,6.1-13.6,13.6
			c0,7.5,6.1,13.61,13.6,13.61c7.5,0,13.61-6.1,13.61-13.61C303.47,76.34,297.36,70.23,289.86,70.23z"/>
	</g>
	<path class="st11" d="M334.04,129.91l4.94-0.02c1.95,0,2.76,2.49,1.18,3.63l-4.01,2.89c-1.86,1.34-0.38,4.24,1.79,3.53l4.7-1.55
		c1.85-0.61,3.38,1.51,2.23,3.08l-2.92,3.99c-1.35,1.85,0.95,4.15,2.8,2.8l3.99-2.92c1.57-1.15,3.7,0.4,3.09,2.24l-1.55,4.69
		c-0.72,2.17,2.19,3.65,3.53,1.79l2.89-4.01c1.14-1.58,3.64-0.77,3.63,1.18l-0.02,4.94c-0.01,2.29,3.21,2.8,3.91,0.62l1.51-4.7
		c0.59-1.86,3.21-1.86,3.81,0l1.51,4.7c0.71,2.18,3.92,1.67,3.91-0.62l-0.02-4.94c-0.01-1.95,2.49-2.76,3.63-1.18l2.88,4.01
		c1.34,1.86,4.24,0.38,3.53-1.79l-1.55-4.69c-0.6-1.85,1.52-3.39,3.09-2.24l3.99,2.92c1.85,1.35,4.15-0.95,2.8-2.8l-2.92-3.99
		c-1.15-1.57,0.39-3.7,2.23-3.08l4.7,1.55c2.17,0.72,3.65-2.19,1.79-3.53l-4.01-2.89c-1.58-1.14-0.77-3.63,1.18-3.63l4.94,0.02
		c2.29,0.01,2.8-3.21,0.62-3.9l-4.71-1.51c-1.85-0.6-1.85-3.22,0-3.82l4.71-1.51c2.18-0.7,1.67-3.92-0.62-3.91l-4.94,0.02
		c-1.95,0.01-2.76-2.49-1.18-3.62l4.01-2.89c1.86-1.34,0.38-4.24-1.79-3.53l-4.7,1.55c-1.85,0.6-3.38-1.52-2.23-3.08l2.92-3.99
		c1.35-1.85-0.95-4.16-2.8-2.8l-3.99,2.92c-1.57,1.15-3.7-0.4-3.09-2.24l1.55-4.69c0.72-2.18-2.19-3.66-3.53-1.8l-2.88,4.02
		c-1.14,1.57-3.64,0.76-3.63-1.18l0.02-4.95c0.01-2.29-3.21-2.8-3.91-0.62l-1.51,4.71c-0.59,1.86-3.21,1.86-3.81,0l-1.51-4.71
		c-0.71-2.18-3.92-1.67-3.91,0.62l0.02,4.95c0.01,1.94-2.49,2.75-3.63,1.18l-2.89-4.02c-1.34-1.86-4.24-0.38-3.53,1.8l1.55,4.69
		c0.6,1.85-1.52,3.39-3.09,2.24l-3.99-2.92c-1.85-1.36-4.15,0.95-2.8,2.8l2.92,3.99c1.15,1.56-0.39,3.69-2.23,3.08l-4.7-1.55
		c-2.17-0.72-3.65,2.19-1.79,3.53l4.01,2.89c1.58,1.13,0.77,3.63-1.18,3.62l-4.94-0.02c-2.29-0.01-2.8,3.21-0.62,3.91l4.71,1.51
		c1.85,0.59,1.85,3.21,0,3.82l-4.71,1.51C331.24,126.7,331.74,129.92,334.04,129.91z M353.31,122.58c0-7.91,6.42-14.32,14.33-14.32
		c7.91,0,14.32,6.41,14.32,14.32s-6.41,14.33-14.32,14.33C359.73,136.91,353.31,130.49,353.31,122.58z"/>
	<g>
		
			<rect x="289.86" y="147.16" transform="matrix(-1 -1.224647e-16 1.224647e-16 -1 593.3044 337.4004)" class="st12" width="13.59" height="43.09"/>
		<path class="st12" d="M281.54,189.09c5.16,5.96,10.31,11.92,15.47,17.87c4.92-5.96,9.83-11.92,14.75-17.87
			C301.69,189.09,291.62,189.09,281.54,189.09z"/>
	</g>
	<g>
		<path class="st0" d="M330.45,467.39c5.66-1.39,42.79-10.75,42.49-23.06c-0.06-2.4-1.58-6.56-11.43-11.47
			c-6.55-5.91-13.11-11.82-19.66-17.73l-5.21-4.69l-1.29-1.1l-5.07-4.57l-1.48-1.35l-5.21-4.69l-1.48-1.35l-5.02-4.52l-1.44-1.31
			l-4.93-4.44l-1.53-1.39l-5.21-4.69c-0.5-0.18-0.79-0.43-0.95-0.81l-5.89-5.34l-0.67-0.57l-12.92-11.66
			c-3.52-3.01-7.03-6.02-10.55-9.03c-9.72,11.93-19.44,23.85-29.17,35.78l1.25,1.14l5.64,5.05L330.45,467.39z"/>
		<path class="st3" d="M336.61,489.78c1.53,1.4,3.51,1.53,5.02,1.42c23.21-20.94,46.59-41.87,69.84-62.85
			c4.01-3.58,8.03-7.25,12-10.87c-1.05-2.26-2.16-4.12-3.28-5.64c-1.96-2.61-4.06-4.17-5.78-5.22
			c-12.19-7.23-32.55-1.43-50.97,15.48c-1.71,1.56-3.33,3.21-5,4.91c-0.41,0.38-0.74,0.76-1.16,1.14
			c6.17,3.27,12.91,7.68,12.24,11.49c-0.55,3.17-6.55,1.97-12.5,6.77c-7.58,6.11-5.16,13.73-12.52,20.19
			c-3.6,3.16-8,4.69-12.44,5.31c1.61,3.76,2.11,5.28,2.26,5.81c0.08,0.27,0.15,0.63,0.22,1.07c0.11,0.49,0.18,0.85,0.25,1.29
			c0.13,0.98,0.13,1.91,0.01,2.7c0,1.02-0.22,3.84,0.93,5.75C335.98,489,336.22,489.45,336.61,489.78z"/>
		<path class="st3" d="M357.05,445.59c6.24,1.96,12.8-0.02,16.05-4.55c4.25-5.93,2.5-15.72-5.21-20.6
			c-6.36-5.42-12.72-10.84-19.09-16.27c-3.47,9.76-6.94,19.52-10.41,29.28c0.92-0.49,5.2-2.68,9.98-1.08
			C353.48,434.06,357.06,439.38,357.05,445.59z"/>
	</g>
	<path class="st3" d="M257.73,466.79c3.4,5.59,9.64,8.42,15.07,7.15c7.1-1.65,12.24-10.17,9.66-18.93
		c-1.21-8.27-2.42-16.54-3.64-24.81c-9.04,5.05-18.08,10.11-27.13,15.16c1.02,0.23,5.68,1.41,8.22,5.76
		C262.64,455.77,261.82,462.13,257.73,466.79z"/>
	<g>
		<path class="st4" d="M383.97,427.97c1.31-0.47,1.99-1.91,1.53-3.22l-3.94-11.05c-0.47-1.31-1.91-1.99-3.22-1.53
			c-1.31,0.47-1.99,1.91-1.53,3.22l3.94,11.05C381.22,427.74,382.67,428.43,383.97,427.97z"/>
		<path class="st4" d="M377.68,431.33c1.31-0.47,1.99-1.92,1.53-3.22l-3.94-11.05c-0.47-1.31-1.91-1.99-3.22-1.53
			c-1.31,0.47-1.99,1.92-1.53,3.22l3.94,11.05C374.93,431.11,376.38,431.79,377.68,431.33z"/>
	</g>
	<g>
		<path class="st4" d="M286.38,470.61c1.25,0.61,2.76,0.09,3.37-1.16l5.15-10.54c0.61-1.25,0.09-2.76-1.16-3.37
			c-1.25-0.61-2.76-0.09-3.37,1.16l-5.15,10.54C284.61,468.49,285.13,470.01,286.38,470.61z"/>
		<path class="st4" d="M279.58,468.47c1.25,0.61,2.76,0.09,3.37-1.16l5.15-10.54c0.61-1.25,0.09-2.76-1.16-3.37
			c-1.25-0.61-2.76-0.09-3.37,1.16l-5.15,10.54C277.81,466.34,278.33,467.86,279.58,468.47z"/>
	</g>
	<g>
		<g>
			<path class="st6" d="M44.54,490.28h-9.12c-0.51,0-0.93-0.42-0.93-0.93c0-0.51,0.42-0.93,0.93-0.93h9.12
				c0.51,0,0.93,0.42,0.93,0.93C45.47,489.87,45.05,490.28,44.54,490.28z"/>
		</g>
		<g>
			<path class="st6" d="M58.63,490.28h-7.05c-0.51,0-0.93-0.42-0.93-0.93c0-0.51,0.42-0.93,0.93-0.93h7.05
				c0.51,0,0.93,0.42,0.93,0.93C59.56,489.87,59.14,490.28,58.63,490.28z"/>
		</g>
		<g>
			<path class="st6" d="M414.53,490.28H64.71c-0.51,0-0.93-0.42-0.93-0.93c0-0.51,0.42-0.93,0.93-0.93h349.82
				c0.51,0,0.93,0.42,0.93,0.93C415.47,489.87,415.05,490.28,414.53,490.28z"/>
		</g>
		<g>
			<path class="st6" d="M434.43,490.28h-13.47c-0.51,0-0.93-0.42-0.93-0.93c0-0.51,0.42-0.93,0.93-0.93h13.47
				c0.51,0,0.93,0.42,0.93,0.93C435.36,489.87,434.94,490.28,434.43,490.28z"/>
		</g>
		<g>
			<path class="st6" d="M443.14,490.28h-5.59c-0.51,0-0.93-0.42-0.93-0.93c0-0.51,0.42-0.93,0.93-0.93h5.59
				c0.51,0,0.93,0.42,0.93,0.93C444.07,489.87,443.65,490.28,443.14,490.28z"/>
		</g>
		<g>
			<path class="st6" d="M459.1,490.28h-9.54c-0.51,0-0.93-0.42-0.93-0.93c0-0.51,0.42-0.93,0.93-0.93h9.54
				c0.51,0,0.93,0.42,0.93,0.93C460.03,489.87,459.61,490.28,459.1,490.28z"/>
		</g>
	</g>
	<g>
		<path class="st12" d="M365.97,38.47c3.98,0,7.96,0,11.95,0c-1.63-8.6-3.25-17.21-4.88-25.82
			C370.68,21.26,368.33,29.86,365.97,38.47z"/>
		<path class="st12" d="M365.97,38.47c3.98,0,7.96,0,11.95,0c-1.63,8.6-3.25,17.21-4.88,25.82
			C370.68,55.68,368.33,47.07,365.97,38.47z"/>
	</g>
	<g>
		<path class="st12" d="M372.94,32.5c0,3.98,0,7.96,0,11.95c6.45-1.63,12.91-3.25,19.36-4.88C385.85,37.21,379.4,34.85,372.94,32.5z
			"/>
		<path class="st12" d="M372.94,32.5c0,3.98,0,7.96,0,11.95c-6.45-1.63-12.91-3.25-19.36-4.88
			C360.04,37.21,366.49,34.85,372.94,32.5z"/>
	</g>
	<g>
		<path class="st12" d="M182.29,77.19c3.98,0,7.96,0,11.95,0c-1.63-8.6-3.25-17.21-4.88-25.81C187,59.98,184.64,68.59,182.29,77.19z
			"/>
		<path class="st12" d="M182.29,77.19c3.98,0,7.96,0,11.95,0c-1.63,8.61-3.25,17.21-4.88,25.82C187,94.4,184.64,85.8,182.29,77.19z"
			/>
	</g>
	<g>
		<path class="st12" d="M189.26,71.22c0,3.98,0,7.96,0,11.95c6.45-1.63,12.91-3.25,19.36-4.88
			C202.17,75.93,195.71,73.57,189.26,71.22z"/>
		<path class="st12" d="M189.26,71.22c0,3.98,0,7.96,0,11.95c-6.45-1.63-12.91-3.25-19.36-4.88
			C176.35,75.93,182.81,73.57,189.26,71.22z"/>
	</g>
	<g>
		<path class="st12" d="M141.06,122.59c2.09,0,4.19,0,6.28,0c-0.86-4.52-1.71-9.05-2.57-13.57
			C143.54,113.54,142.3,118.06,141.06,122.59z"/>
		<path class="st12" d="M141.06,122.59c2.09,0,4.19,0,6.28,0c-0.86,4.52-1.71,9.05-2.57,13.57
			C143.54,131.63,142.3,127.11,141.06,122.59z"/>
	</g>
	<g>
		<path class="st12" d="M144.73,119.45c0,2.09,0,4.19,0,6.28c3.39-0.85,6.79-1.71,10.18-2.57
			C151.51,121.92,148.12,120.68,144.73,119.45z"/>
		<path class="st12" d="M144.73,119.45c0,2.09,0,4.19,0,6.28c-3.39-0.85-6.79-1.71-10.18-2.57
			C137.94,121.92,141.33,120.68,144.73,119.45z"/>
	</g>
	<g>
		<path class="st12" d="M425.85,66.37c1.99,0,3.98,0,5.97,0c-0.81-4.3-1.63-8.6-2.44-12.91C428.2,57.77,427.02,62.07,425.85,66.37z"
			/>
		<path class="st12" d="M425.85,66.37c1.99,0,3.98,0,5.97,0c-0.81,4.3-1.63,8.6-2.44,12.91C428.2,74.98,427.02,70.68,425.85,66.37z"
			/>
	</g>
	<g>
		<path class="st12" d="M429.33,63.39c0,1.99,0,3.98,0,5.97c3.23-0.81,6.45-1.63,9.68-2.44C435.79,65.74,432.56,64.56,429.33,63.39z
			"/>
		<path class="st12" d="M429.33,63.39c0,1.99,0,3.98,0,5.97c-3.23-0.81-6.45-1.63-9.68-2.44C422.88,65.74,426.11,64.56,429.33,63.39
			z"/>
	</g>
</g>
</svg>
