<?xml version="1.0" encoding="utf-8"?>
<!-- Generator: Adobe Illustrator 26.0.1, SVG Export Plug-In . SVG Version: 6.00 Build 0)  -->
<svg version="1.1" xmlns="http://www.w3.org/2000/svg" xmlns:xlink="http://www.w3.org/1999/xlink" x="0px" y="0px"
	 viewBox="0 0 500 500" style="enable-background:new 0 0 500 500;" xml:space="preserve">
<style type="text/css">
	.st0{opacity:0.3;fill:#231F20;}
	.st1{fill:#ED6B5B;}
	.st2{fill:#A68529;}
	.st3{fill:#231F20;}
	.st4{fill:#E23D3A;}
	.st5{fill:#1D1D1B;}
	.st6{fill:#74FF88;}
</style>
<g id="bg">
</g>
<g id="character">
	<path class="st0" d="M62.77,482.77c0,6.31,38.69,11.43,86.41,11.43c47.72,0,86.41-5.12,86.41-11.43c0-6.31-38.69-11.43-86.41-11.43
		C101.46,471.34,62.77,476.46,62.77,482.77z"/>
	<path class="st1" d="M183.16,117.74C183.68,41.02,248.48,6.81,321.58,6.81c73.1,0,140.49,31.62,138.93,109.38
		c0,75.17-68.95,82.94-99.01,103.16c-14,9.33-1.02,50.8-1.02,50.8s-11.69,7.66-42.18,7.66s-44.93-7.66-44.93-7.66v-3.11
		c0.52-71.02,29.55-87.09,57.02-101.61c27.48-14.52,59.1-18.66,59.1-49.77c0-39.92-36.81-49.25-68.95-49.25
		c-33.18,0-41.63,18.66-42.14,51.32H183.16z M363.85,340.92c0,62.53-95.28,62.53-95.28,0C268.57,277.8,363.85,277.8,363.85,340.92z"
		/>
	<g>
		<g>
			<path class="st2" d="M140.89,436.21l45.22-8.69c0,0,13.83-22.71,8.62-49.83c-6.72-34.92,31.26-57.12,21.87-105.92
				c-9.73-50.63-56.57-80.53-100.59-72.15l0,0c-0.03,0-0.05,0.01-0.07,0.01c-0.03,0.01-0.05,0.01-0.08,0.02l0,0
				c-43.99,8.54-76.39,53.68-66.66,104.31c9.39,48.81,55.19,53.42,61.91,88.35C116.32,419.42,140.89,436.21,140.89,436.21z"/>
			<path class="st2" d="M130.91,483.34c-16.29-3.1-7.57-80.24-7.57-80.24c0.66-8.53,8.11-14.9,16.64-14.24
				c8.53,0.66,14.9,8.11,14.24,16.64C154.22,405.5,147.2,486.44,130.91,483.34z"/>
			<path class="st2" d="M164.47,484.13c-19.29-1.55-0.64-82.33-0.64-82.33c1.54-8.41,9.62-13.98,18.03-12.44
				c8.41,1.54,14.26,3.91,12.97,13.74C194.82,403.1,182.22,485.55,164.47,484.13z"/>
			<path class="st2" d="M112.32,204.98c0,0-9.94-0.04-14.85-5.52c-5.05-5.64,7.47-7.36,12.55-3.13c2.23,1.86,3.3,3.59,3.3,3.59
				s0.25-8.51,4.21-10.5c3.96-1.99,7.02,1.8,5.31,5.09c-1.71,3.29-1.71,3.29-1.71,3.29s2.96-4.18,8.17-5.82
				c4.23-1.34,8-1.36,6.45,2.26c-1.04,2.43-10.36,8.83-10.36,8.83L112.32,204.98z"/>
			<path class="st2" d="M80.87,437.78c55.92-21.35,52.28-60.34,52.81-61.98c1.86-5.72-1.27-11.87-6.99-13.72
				c-5.71-1.85-11.84,1.26-13.71,6.96c-0.16,0.48-7.98,33.48-39.47,50.79c-2.6,1.43-8.92,8.92-5.52,14.44
				C71.38,439.79,79.96,438.12,80.87,437.78z"/>
			<path class="st2" d="M245.99,336.57c-0.22-0.07-0.43-0.13-0.65-0.17l1.4-7.37c0.54-2.82-1.31-5.54-4.13-6.07
				c-2.82-0.54-5.54,1.31-6.08,4.13l-2.38,12.5c-1.62-1.31-3.95-1.56-5.87-0.46c-2.48,1.44-3.33,4.61-1.9,7.1l2.89,5
				c-12.05,12.19-39.07,11.62-50.28,10.89c-6.68-0.45-12.45,4.6-12.9,11.27c-0.45,6.68,4.6,12.46,11.27,12.91
				c0.61,0.04,14.87,0.96,30.71-1.94c0.24-0.04,0.48-0.07,0.72-0.13c26.54-7.5,35.97-17.15,39.77-28.75
				C250.67,349.11,252.35,338.66,245.99,336.57z"/>
		</g>
		<g>
			<polygon class="st3" points="164.88,377.49 164.97,377.47 168.46,376.53 169.71,367.42 164.25,363.96 161.53,364.69 
				161.45,364.71 158.72,365.45 155.75,371.18 161.4,378.43 			"/>
			<polygon class="st3" points="176.29,419.46 183.09,407.44 168.9,378.66 165.54,379.57 165.54,379.57 165.5,379.58 165.45,379.59 
				165.45,379.59 162.09,380.5 164.27,412.51 176.2,419.48 176.22,419.57 176.25,419.51 176.31,419.55 			"/>
		</g>
		<g>
			<path class="st3" d="M158.98,331.27c2.99,8.7,9.81,14.23,15.25,12.37c5.43-1.87,7.42-10.43,4.43-19.13
				c-2.99-8.7-9.81-14.23-15.25-12.37C157.98,314.01,156,322.57,158.98,331.27z"/>
			<path class="st4" d="M179.44,327.26c1.75,7.68-0.34,14.71-5.2,16.38c-4.91,1.69-10.95-2.68-14.28-9.96
				c1.63-2.93,3.89-6.11,8.25-7.6C171.68,324.88,175.62,325.21,179.44,327.26z"/>
		</g>
		<g>
			<path class="st5" d="M201.68,236.84c-1.92,1.36-3.91,2.6-5.9,3.8c-2,1.2-4.06,2.29-6.14,3.32c-1.55,0.78-3.15,1.5-4.73,2.16
				c-1.16-2.02-2.33-4.04-3.53-6.04l-0.09-0.14c-0.7-1-2.08-1.24-3.07-0.53l-0.13,0.09c-2.06,1.45-4.16,2.85-6.3,4.19
				c-2.14,1.33-4.27,2.67-6.46,3.92c-2.18,1.26-4.39,2.45-6.63,3.59c-0.54,0.27-1.09,0.54-1.64,0.8l0.78-4.62
				c0.14-0.9-0.11-1.86-0.78-2.58c-1.15-1.24-3.09-1.32-4.33-0.16l-0.04,0.03c-4.7,4.34-10.02,8.19-15.66,11.55
				c-5.6,3.46-11.51,6.47-17.5,9.36c-3,1.45-6.03,2.81-9.1,4.14c-3.05,1.36-6.13,2.66-9.24,3.9c-6.2,2.56-12.48,4.92-18.82,7.26
				c6.7-0.95,13.29-2.53,19.83-4.29c3.26-0.93,6.51-1.91,9.74-2.96c3.22-1.09,6.4-2.26,9.58-3.5c6.34-2.49,12.53-5.42,18.53-8.78
				c3.58-2.09,7.12-4.34,10.49-6.86l-0.33,2.19l-0.01,0.08c-0.08,0.54-0.02,1.11,0.22,1.65c0.66,1.5,2.42,2.17,3.91,1.5
				c2.53-1.12,4.8-2.29,7.1-3.59c2.29-1.28,4.53-2.62,6.73-4.02c2.2-1.41,4.39-2.83,6.48-4.39c1.47-1.08,2.91-2.19,4.34-3.32
				c1.16,1.66,2.31,3.33,3.5,4.97l0.13,0.18c0.5,0.69,1.43,0.94,2.22,0.55c2.26-1.12,4.29-2.32,6.34-3.61
				c2.02-1.31,3.97-2.71,5.87-4.18c1.9-1.46,3.7-3.05,5.42-4.7c1.74-1.64,3.32-3.43,4.83-5.25
				C205.49,234.08,203.58,235.47,201.68,236.84z"/>
			<g>
				<path class="st6" d="M132.12,339.75c-14.95,5.39-31.49-2.39-36.88-17.33c-5.39-14.94,2.39-31.49,17.34-36.88
					c14.94-5.39,31.49,2.39,36.88,17.33C154.84,317.82,147.06,334.37,132.12,339.75z M114.68,291.37
					c-11.74,4.23-17.84,17.22-13.61,28.95c4.23,11.73,17.22,17.84,28.96,13.61c11.73-4.23,17.84-17.22,13.61-28.96
					C139.4,293.24,126.41,287.13,114.68,291.37z"/>
				<path class="st6" d="M206.73,312.86c-14.94,5.39-31.49-2.39-36.88-17.34c-5.39-14.95,2.39-31.49,17.33-36.88
					c14.95-5.39,31.5,2.39,36.88,17.33C229.46,290.92,221.68,307.47,206.73,312.86z M189.29,264.46
					c-11.73,4.23-17.84,17.22-13.61,28.96c4.23,11.73,17.22,17.84,28.95,13.61c11.74-4.23,17.84-17.22,13.61-28.96
					C214.01,266.34,201.02,260.23,189.29,264.46z"/>
				<path class="st6" d="M147.9,301.26l-5.19-3.38c3.19-4.89,7.78-8.52,13.29-10.5c5.46-1.97,11.29-2.12,16.82-0.42l-1.81,5.92
					c-4.25-1.3-8.72-1.19-12.92,0.32C153.87,294.73,150.34,297.51,147.9,301.26z"/>
			</g>
			<g>
				<g>
					<path class="st5" d="M191.22,281.19c-2.83,3.88-1.98,9.33,1.9,12.16c3.88,2.83,9.33,1.98,12.16-1.9
						c2.83-3.88,1.98-9.32-1.9-12.16C199.5,276.45,194.06,277.31,191.22,281.19z"/>
					<path class="st5" d="M211.45,288.93c0.99-1.75,1.34-3.79,1.26-5.82c-0.1-2.04-0.72-4.13-1.89-5.91
						c-1.15-1.79-2.83-3.21-4.68-4.09c-1.86-0.87-3.86-1.29-5.85-1.15c1.67,1.09,3.23,2.05,4.58,3.18c1.36,1.11,2.5,2.33,3.4,3.72
						C210.11,281.64,210.94,285.05,211.45,288.93z"/>
				</g>
				<g>
					<path class="st5" d="M123.96,306.38c4.69,1.07,7.62,5.73,6.55,10.42c-1.06,4.69-5.73,7.62-10.42,6.55
						c-4.69-1.07-7.62-5.73-6.55-10.42C114.61,308.25,119.27,305.31,123.96,306.38z"/>
					<path class="st5" d="M113.79,325.51c-2.16-3.27-3.77-6.38-4.22-9.67c-0.23-1.64-0.18-3.31,0.12-5.04
						c0.28-1.74,0.82-3.49,1.37-5.4c-1.59,1.19-2.83,2.82-3.66,4.7c-0.82,1.88-1.15,4.05-0.84,6.16c0.29,2.11,1.19,4.09,2.45,5.69
						C110.29,323.53,111.89,324.84,113.79,325.51z"/>
				</g>
			</g>
		</g>
	</g>
</g>
</svg>
