<?xml version="1.0" encoding="utf-8"?>
<svg version="1.1" xmlns="http://www.w3.org/2000/svg" xmlns:xlink="http://www.w3.org/1999/xlink" viewBox="0 0 32 32" aria-hidden="true" focusable="false"><path d="M16,0C7.2,0,0,7.2,0,16s7.2,16,16,16s16-7.2,16-16C32,7.2,24.8,0,16,0 M16,2c7.7,0,14,6.3,14,14s-6.3,14-14,14S2,23.7,2,16C2,8.3,8.3,2,16,2 M14,24.4c-0.1-0.8,0.6-1.5,1.4-1.6c0,0,0.1,0,0.1,0c0.8,0,1.5,0.6,1.5,1.4c0,0.1,0,0.1,0,0.2c0,0.8-0.5,1.5-1.3,1.5c-0.1,0-0.1,0-0.2,0c-0.8,0.1-1.4-0.5-1.5-1.2C14,24.6,14,24.5,14,24.4 M15.8,7.1c3.3,0,5.6,2.1,5.6,4.8c0,1.9-1.1,3.7-2.8,4.6c-1.7,1-2.2,1.7-2.2,3.1v0.9h-2.3v-1.2c0-1.8,0.8-3,2.7-4c1.5-0.9,2.1-1.8,2.1-3.2c-0.1-1.7-1.4-3-3.1-2.9c-0.1,0-0.1,0-0.2,0c-1.7-0.1-3.2,1.1-3.4,2.9c0,0.1,0,0.2,0,0.2H10C10.2,9.4,12.1,7.1,15.8,7.1"></path></svg>