<?xml version="1.0" encoding="utf-8"?>
<svg version="1.1" xmlns="http://www.w3.org/2000/svg" xmlns:xlink="http://www.w3.org/1999/xlink" viewBox="0 0 24 24" aria-hidden="true" focusable="false"><path d="M18.3,16h-0.7c-0.8,0-1.3,0.9-0.8,1.5c0.8,1.2,1.2,2.6,1.2,4l0,0v0.1l0,0c0,0.3-0.1,0.7-0.1,1c-0.2,0.7,0.3,1.3,0.9,1.3h2.8c1.3,0,2.4-1.1,2.4-2.4C24,18.5,21.4,16,18.3,16z M14.8,13.9c0.7,0.2,1.5,0.2,2.3,0c2.1-0.4,3.8-2.1,4.2-4.2C22.1,6.1,19.4,3,16,3c-0.4,0-0.8,0-1.2,0.1c-0.7,0.2-0.9,0.9-0.6,1.5c0.7,1.1,1.1,2.4,1.1,3.8s-0.4,2.7-1.1,3.8C13.9,12.9,14.1,13.7,14.8,13.9z M12,16.3c-0.5-0.2-1.1-0.3-1.7-0.3H5.7C2.6,16,0,18.5,0,21.6C0,22.9,1.1,24,2.4,24h11.2c1.3,0,2.4-1.1,2.4-2.4C16,19.1,14.3,17,12,16.3z M8,3c3,0,5.5,2.5,5.5,5.5S11,14,8,14s-5.5-2.5-5.5-5.5S5,3,8,3z"></path></svg>